<svg width="40" height="40" viewBox="0 0 40 40" fill="none" xmlns="http://www.w3.org/2000/svg">
<g clip-path="url(#clip0_238_54)">
<path d="M20 20C22.7614 20 25 17.7614 25 15C25 12.2386 22.7614 10 20 10C17.2386 10 15 12.2386 15 15C15 17.7614 17.2386 20 20 20Z" stroke="#CCCCCC"/>
<g filter="url(#filter0_d_238_54)">
<path d="M20 36.6667C29.2048 36.6667 36.6667 29.2047 36.6667 20C36.6667 10.7953 29.2048 3.33333 20 3.33333C10.7953 3.33333 3.33337 10.7953 3.33337 20C3.33337 29.2047 10.7953 36.6667 20 36.6667Z" stroke="#CCCCCC" shape-rendering="crispEdges"/>
</g>
<path d="M28.6667 31.3333C28.4357 27.478 27.1503 24.6667 20 24.6667C12.8498 24.6667 11.5644 27.478 11.3334 31.3333" stroke="#CCCCCC" stroke-linecap="round"/>
</g>
<defs>
<filter id="filter0_d_238_54" x="-1.16663" y="2.83333" width="42.3334" height="42.3333" filterUnits="userSpaceOnUse" color-interpolation-filters="sRGB">
<feFlood flood-opacity="0" result="BackgroundImageFix"/>
<feColorMatrix in="SourceAlpha" type="matrix" values="0 0 0 0 0 0 0 0 0 0 0 0 0 0 0 0 0 0 127 0" result="hardAlpha"/>
<feOffset dy="4"/>
<feGaussianBlur stdDeviation="2"/>
<feComposite in2="hardAlpha" operator="out"/>
<feColorMatrix type="matrix" values="0 0 0 0 0 0 0 0 0 0 0 0 0 0 0 0 0 0 0.25 0"/>
<feBlend mode="normal" in2="BackgroundImageFix" result="effect1_dropShadow_238_54"/>
<feBlend mode="normal" in="SourceGraphic" in2="effect1_dropShadow_238_54" result="shape"/>
</filter>
<clipPath id="clip0_238_54">
<rect width="40" height="40" fill="white"/>
</clipPath>
</defs>
</svg>
